<?xml version="1.0" encoding="UTF-8"?>
<svg width="16px" height="16px" viewBox="0 0 16 16" xmlns="http://www.w3.org/2000/svg" xmlns:xlink="http://www.w3.org/1999/xlink" version="1.1">
 <!-- Generated by Pixelmator Pro 1.3.4 -->
 <path id="path" d="M11.049 5.516 L9.797 5.471 9.525 12.886 10.778 12.931 Z" fill="#000000" fill-opacity="1" stroke="none"/>
 <path id="path-1" d="M7.373 5.494 L8.627 5.494 8.627 12.909 7.373 12.909 Z" fill="#000000" fill-opacity="1" stroke="none"/>
 <path id="path-2" d="M6.474 12.885 L6.203 5.47 4.951 5.516 5.222 12.931 Z" fill="#000000" fill-opacity="1" stroke="none"/>
 <path id="path-3" d="M0.543 2.402 L0.543 3.655 1.849 3.655 2.885 15.428 C2.913 15.752 3.184 16 3.509 16 L12.47 16 C12.795 16 13.066 15.752 13.094 15.428 L14.13 3.655 15.457 3.655 15.457 2.402 0.543 2.402 Z M11.896 14.747 L4.083 14.747 3.107 3.655 12.872 3.655 11.896 14.747 Z" fill="#000000" fill-opacity="1" stroke="none"/>
 <path id="path-4" d="M10.047 0 L5.953 0 C5.377 0 4.909 0.469 4.909 1.044 L4.909 3.029 6.162 3.029 6.162 1.253 9.838 1.253 9.838 3.029 11.091 3.029 11.091 1.044 C11.091 0.469 10.623 0 10.047 0 Z" fill="#000000" fill-opacity="1" stroke="none"/>
</svg>
