<?xml version="1.0" encoding="UTF-8"?>
<svg width="32px" height="32px" viewBox="0 0 32 32" xmlns="http://www.w3.org/2000/svg" xmlns:xlink="http://www.w3.org/1999/xlink" version="1.1">
 <!-- Generated by Pixelmator Pro 1.3.3 -->
 <path id="path" d="M28.267 21.867 L28.267 15.467 16.533 15.467 16.533 10.133 20.267 10.133 20.267 1.6 11.733 1.6 11.733 10.133 15.467 10.133 15.467 15.467 3.733 15.467 3.733 21.867 0 21.867 0 30.4 8.533 30.4 8.533 21.867 4.8 21.867 4.8 16.533 15.467 16.533 15.467 21.867 11.733 21.867 11.733 30.4 20.267 30.4 20.267 21.867 16.533 21.867 16.533 16.533 27.2 16.533 27.2 21.867 23.467 21.867 23.467 30.4 32 30.4 32 21.867 28.267 21.867 Z M12.8 2.667 L19.2 2.667 19.2 9.067 12.8 9.067 12.8 2.667 Z M7.467 29.333 L1.067 29.333 1.067 22.933 7.467 22.933 7.467 29.333 Z M19.2 29.333 L12.8 29.333 12.8 22.933 19.2 22.933 19.2 29.333 Z M30.933 29.333 L24.533 29.333 24.533 22.933 30.933 22.933 30.933 29.333 Z" fill="#000000" fill-opacity="1" stroke="none"/>
</svg>
